<svg preserveAspectRatio="none" overflow="visible" style="display: block;" width="271" height="84" viewBox="0 0 271 84" fill="none" xmlns="http://www.w3.org/2000/svg">
<g id="Union">
<path d="M52.5989 29.6298L76.7454 18.3314V18.3251L77.1756 18.9659C81.565 25.6255 84.1254 33.6144 84.1254 42.1885C84.1253 61.8436 70.732 78.3621 52.5989 83.0523V33.5492L14.1735 15.4298L36.4248 33.5549V84C15.8688 81.2341 5.77316e-05 63.5855 0 42.1942C0 29.9951 5.17412 19.0081 13.4281 11.299L52.5989 29.6298Z" fill="white"/>
<path fill-rule="evenodd" clip-rule="evenodd" d="M171.044 62.3176C172.227 62.3176 173.258 62.5767 174.137 63.094C175.032 63.6112 175.715 64.3109 176.185 65.1933C176.67 66.0605 176.913 67.0265 176.913 68.0915C176.913 68.6391 176.898 69.0575 176.867 69.3466H166.562C166.607 70.2899 166.835 71.0966 167.244 71.766C167.654 72.4353 168.192 72.9448 168.859 73.2947C169.527 73.6294 170.255 73.797 171.044 73.797C172.075 73.7969 172.94 73.5456 173.637 73.0436C174.35 72.5415 174.82 71.8645 175.048 71.0126H176.731C176.428 72.2297 175.775 73.2262 174.774 74.0021C173.789 74.7628 172.545 75.1434 171.044 75.1435C169.876 75.1435 168.829 74.8849 167.904 74.3676C166.979 73.8351 166.251 73.0894 165.72 72.1309C165.204 71.1572 164.946 70.0237 164.946 68.7305C164.946 67.4373 165.204 66.3038 165.72 65.3301C166.235 64.3564 166.956 63.6112 167.881 63.094C168.806 62.5767 169.861 62.3176 171.044 62.3176ZM170.975 63.687C169.792 63.6871 168.784 64.0677 167.949 64.8284C167.115 65.5891 166.653 66.6616 166.562 68.0461H175.297C175.313 67.1181 175.123 66.3268 174.729 65.6726C174.35 65.0185 173.827 64.524 173.159 64.1893C172.492 63.8546 171.764 63.687 170.975 63.687Z" fill="white"/>
<path fill-rule="evenodd" clip-rule="evenodd" d="M212.681 62.3176C213.849 62.3176 214.903 62.5839 215.843 63.1164C216.799 63.6337 217.541 64.3794 218.072 65.3531C218.618 66.3115 218.892 67.4373 218.892 68.7305C218.892 70.0085 218.618 71.1343 218.072 72.108C217.526 73.0817 216.776 73.8351 215.82 74.3676C214.865 74.8849 213.803 75.1435 212.635 75.1435C211.467 75.1434 210.413 74.8848 209.473 74.3676C208.548 73.8352 207.812 73.0894 207.266 72.1309C206.735 71.1572 206.47 70.0237 206.47 68.7305C206.47 67.4374 206.743 66.3115 207.289 65.3531C207.835 64.3794 208.578 63.6337 209.518 63.1164C210.459 62.5839 211.513 62.3176 212.681 62.3176ZM212.658 63.71C211.839 63.71 211.081 63.9004 210.383 64.2807C209.685 64.6458 209.124 65.2086 208.7 65.9691C208.29 66.7146 208.085 67.6351 208.085 68.7305C208.085 69.8259 208.29 70.7542 208.7 71.5149C209.124 72.2602 209.678 72.823 210.36 73.2033C211.058 73.5684 211.816 73.751 212.635 73.751C213.454 73.751 214.213 73.5685 214.91 73.2033C215.608 72.823 216.169 72.2602 216.594 71.5149C217.033 70.7542 217.254 69.8259 217.254 68.7305C217.254 67.6351 217.041 66.7146 216.617 65.9691C216.192 65.2084 215.63 64.6458 214.933 64.2807C214.235 63.9003 213.477 63.71 212.658 63.71Z" fill="white"/>
<path fill-rule="evenodd" clip-rule="evenodd" d="M235.406 62.3176C236.589 62.3176 237.62 62.5767 238.5 63.094C239.395 63.6112 240.077 64.3109 240.548 65.1933C241.033 66.0605 241.276 67.0265 241.276 68.0915C241.276 68.6391 241.26 69.0575 241.23 69.3466H230.924C230.97 70.2899 231.198 71.0966 231.607 71.766C232.016 72.4353 232.555 72.9448 233.222 73.2947C233.889 73.6294 234.617 73.797 235.406 73.797C236.437 73.797 237.302 73.5456 237.999 73.0436C238.712 72.5415 239.182 71.8646 239.41 71.0126H241.094C240.79 72.2297 240.138 73.2262 239.137 74.0021C238.151 74.7628 236.907 75.1435 235.406 75.1435C234.238 75.1435 233.192 74.8849 232.266 74.3676C231.341 73.8351 230.613 73.0894 230.083 72.1309C229.567 71.1572 229.309 70.0237 229.309 68.7305C229.309 67.4373 229.567 66.3038 230.083 65.3301C230.598 64.3565 231.318 63.6112 232.243 63.094C233.169 62.5767 234.223 62.3176 235.406 62.3176ZM235.338 63.687C234.155 63.687 233.146 64.0677 232.312 64.8284C231.478 65.5891 231.015 66.6616 230.924 68.0461H239.66C239.675 67.118 239.486 66.3268 239.091 65.6726C238.712 65.0184 238.189 64.524 237.522 64.1893C236.854 63.8546 236.126 63.687 235.338 63.687Z" fill="white"/>
<path fill-rule="evenodd" clip-rule="evenodd" d="M115.698 58.8263C117.185 58.8264 118.527 59.176 119.725 59.8757C120.923 60.5603 121.864 61.5269 122.546 62.7744C123.229 64.0067 123.57 65.4063 123.57 66.9731C123.57 68.5402 123.229 69.9478 122.546 71.1954C121.864 72.4277 120.923 73.3937 119.725 74.0935C118.527 74.7781 117.185 75.1204 115.698 75.1205C114.227 75.1205 112.893 74.7781 111.694 74.0935C110.496 73.3937 109.548 72.4276 108.851 71.1954C108.168 69.9478 107.827 68.5402 107.827 66.9731C107.827 65.4062 108.168 64.0067 108.851 62.7744C109.548 61.5269 110.496 60.5603 111.694 59.8757C112.892 59.176 114.227 58.8263 115.698 58.8263ZM115.698 60.2412C114.515 60.2412 113.453 60.5147 112.513 61.0624C111.573 61.6101 110.829 62.3936 110.283 63.4129C109.737 64.4322 109.465 65.6191 109.465 66.9731C109.465 68.3271 109.737 69.5218 110.283 70.5563C110.829 71.5756 111.573 72.3591 112.513 72.9068C113.453 73.4545 114.515 73.7286 115.698 73.7286C116.881 73.7285 117.943 73.4545 118.883 72.9068C119.823 72.3591 120.567 71.5757 121.113 70.5563C121.659 69.5217 121.932 68.3272 121.932 66.9731C121.931 65.6191 121.659 64.4322 121.113 63.4129C120.567 62.3936 119.823 61.6101 118.883 61.0624C117.943 60.5148 116.881 60.2412 115.698 60.2412Z" fill="white"/>
<path d="M190.756 58.8263C192.227 58.8263 193.41 59.1914 194.305 59.9217C195.215 60.6367 195.738 61.5645 195.875 62.7055H194.146C194.04 62.0514 193.683 61.4731 193.077 60.9711C192.47 60.4538 191.651 60.1952 190.62 60.1952C189.664 60.1952 188.868 60.4538 188.231 60.9711C187.594 61.4731 187.276 62.1656 187.276 63.048C187.276 63.7174 187.45 64.2578 187.799 64.6686C188.147 65.0793 188.58 65.3912 189.095 65.6042C189.626 65.8172 190.339 66.0452 191.234 66.2887C192.265 66.5777 193.099 66.8668 193.736 67.1559C194.373 67.4297 194.912 67.8558 195.352 68.434C195.792 69.0121 196.011 69.7879 196.011 70.7615C196.011 71.5069 195.814 72.2144 195.42 72.8838C195.026 73.5532 194.442 74.0936 193.668 74.5044C192.895 74.9151 191.97 75.1204 190.893 75.1205C189.846 75.1205 188.921 74.9379 188.117 74.5728C187.329 74.2077 186.707 73.6978 186.252 73.0436C185.797 72.3894 185.554 71.6592 185.524 70.8528H187.207C187.283 71.6287 187.624 72.3135 188.231 72.9068C188.837 73.4849 189.725 73.774 190.893 73.774C191.97 73.7739 192.819 73.5003 193.441 72.9528C194.078 72.3898 194.396 71.6818 194.396 70.8299C194.396 70.1453 194.222 69.5975 193.873 69.1868C193.524 68.7608 193.092 68.449 192.576 68.2512C192.06 68.0382 191.347 67.8102 190.437 67.5668C189.376 67.2777 188.534 66.9964 187.912 66.7226C187.29 66.4487 186.76 66.0225 186.32 65.4444C185.88 64.8663 185.66 64.0828 185.66 63.094C185.66 62.2724 185.872 61.5417 186.297 60.9027C186.722 60.2486 187.321 59.7391 188.094 59.374C188.868 59.0089 189.755 58.8263 190.756 58.8263Z" fill="white"/>
<path d="M132.308 62.2722C133.794 62.2722 135.008 62.736 135.948 63.6641C136.888 64.5769 137.358 65.9085 137.358 67.6581V74.9607H135.789V67.8403C135.789 66.4865 135.447 65.452 134.765 64.737C134.098 64.022 133.18 63.6641 132.012 63.6641C130.814 63.6641 129.858 64.0447 129.145 64.8054C128.433 65.5661 128.076 66.6842 128.076 68.1598V74.9607H126.484V62.5003H128.076V64.6226C128.471 63.862 129.039 63.2838 129.782 62.8882C130.526 62.4775 131.368 62.2722 132.308 62.2722Z" fill="white"/>
<path d="M142.473 74.9607H140.88V58.0729H142.473V74.9607Z" fill="white"/>
<path d="M147.672 74.9607H146.079V62.5003H147.672V74.9607Z" fill="white"/>
<path d="M157.102 62.2722C158.588 62.2722 159.802 62.7361 160.742 63.6641C161.682 64.5769 162.152 65.9085 162.152 67.6581V74.9607H160.583V67.8403C160.583 66.4864 160.241 65.452 159.559 64.737C158.891 64.0219 157.974 63.6641 156.806 63.6641C155.608 63.6641 154.653 64.0447 153.94 64.8054C153.227 65.5661 152.87 66.6842 152.87 68.1598V74.9607H151.278V62.5003H152.87V64.6226C153.265 63.862 153.833 63.2838 154.576 62.8882C155.319 62.4775 156.161 62.2722 157.102 62.2722Z" fill="white"/>
<path d="M201.159 62.5003H204.571V63.8468H201.159V71.5833C201.159 72.3439 201.303 72.8688 201.591 73.1579C201.879 73.447 202.388 73.5912 203.116 73.5912H204.571V74.9607H202.865C201.743 74.9607 200.909 74.7021 200.363 74.1849C199.817 73.6524 199.544 72.7852 199.544 71.5833V63.8468H197.815V62.5003H199.544V59.374H201.159V62.5003Z" fill="white"/>
<path d="M227.641 63.9382H227.209C226.056 63.9382 225.131 64.2501 224.434 64.8738C223.736 65.4975 223.387 66.5396 223.387 68.0001V74.9607H221.794V62.5003H223.387V64.714C223.736 63.9381 224.267 63.3372 224.98 62.9112C225.708 62.4853 226.595 62.2722 227.641 62.2722V63.9382Z" fill="white"/>
<path d="M146.875 57.7994C147.194 57.7994 147.467 57.9132 147.694 58.1413C147.922 58.3543 148.036 58.6284 148.036 58.9631C148.036 59.2978 147.922 59.5791 147.694 59.8073C147.467 60.0355 147.194 60.1498 146.875 60.1498C146.557 60.1498 146.284 60.0355 146.056 59.8073C145.829 59.5791 145.715 59.2977 145.715 58.9631C145.715 58.6284 145.829 58.3543 146.056 58.1413C146.284 57.9131 146.557 57.7994 146.875 57.7994Z" fill="white"/>
<path fill-rule="evenodd" clip-rule="evenodd" d="M257.485 16.3625C260.112 16.3626 262.423 16.9297 264.417 18.0636C266.445 19.1976 268.042 20.7814 269.205 22.8157C270.402 24.8502 271 27.2519 271 30.02C271 32.7881 270.402 35.2061 269.205 37.2738C268.041 39.3082 266.445 40.8925 264.417 42.0264C262.423 43.1604 260.112 43.7269 257.485 43.7269C255.324 43.7269 253.346 43.2269 251.551 42.2264C250.58 41.6753 249.716 40.9715 248.957 40.1167V53.0823H242.724V16.6625H248.658V20.1837C249.456 19.2217 250.386 18.4475 251.451 17.8631C253.213 16.8626 255.225 16.3625 257.485 16.3625ZM256.787 21.6652C255.291 21.6652 253.944 21.9987 252.747 22.6657C251.551 23.3328 250.603 24.3 249.905 25.5673C249.207 26.8013 248.858 28.2858 248.858 30.02C248.858 31.7208 249.207 33.2049 249.905 34.4721C250.603 35.7395 251.551 36.7067 252.747 37.3738C253.944 38.0408 255.291 38.3743 256.787 38.3743C258.283 38.3743 259.613 38.0408 260.777 37.3738C261.974 36.7067 262.921 35.7395 263.619 34.4721C264.317 33.2049 264.667 31.7208 264.667 30.02C264.667 28.2858 264.318 26.8013 263.619 25.5673C262.921 24.3 261.974 23.3328 260.777 22.6657C259.613 21.9987 258.283 21.6652 256.787 21.6652Z" fill="white"/>
<path d="M157.495 7.85772C159.589 7.85772 161.668 8.12464 163.729 8.65827C165.79 9.19187 167.585 9.95886 169.115 10.9593L167.07 16.0126C165.605 15.1371 164.096 14.4812 162.544 14.0454L161.921 13.8764C160.371 13.4661 158.879 13.2609 157.445 13.2609C155.65 13.261 154.187 13.4774 153.056 13.9109C151.959 14.3445 151.144 14.9116 150.612 15.612C150.114 16.3124 149.865 17.1132 149.865 18.0136C149.865 19.0808 150.231 19.9477 150.962 20.6147C151.727 21.2483 152.707 21.7489 153.904 22.1158C155.134 22.4826 156.498 22.8494 157.994 23.2163C159.49 23.5498 160.969 23.9333 162.432 24.3668C163.928 24.8004 165.275 25.3675 166.471 26.0679C167.702 26.7683 168.682 27.7189 169.414 28.9195C170.178 30.1201 170.561 31.6374 170.561 33.4716C170.561 35.3392 170.046 37.0735 169.015 38.6743C168.018 40.2418 166.471 41.5092 164.377 42.4764C162.282 43.4102 159.639 43.8775 156.447 43.8775C153.721 43.8775 151.111 43.4935 148.618 42.7264C146.124 41.926 144.146 40.9088 142.683 39.6748L144.928 34.6221C146.324 35.7227 148.053 36.64 150.114 37.3738C152.175 38.1075 154.286 38.4743 156.447 38.4743C158.276 38.4743 159.756 38.2745 160.886 37.8743C162.017 37.4741 162.848 36.9402 163.379 36.2732C163.911 35.5729 164.177 34.7892 164.178 33.9222C164.178 32.8549 163.795 32.0042 163.031 31.3706C162.266 30.7035 161.269 30.1863 160.038 29.8195C158.841 29.4193 157.495 29.0524 155.999 28.7189C154.536 28.3854 153.056 28.002 151.56 27.5684C150.097 27.1015 148.751 26.5177 147.521 25.8173C146.324 25.0836 145.343 24.1163 144.578 22.9157C143.814 21.7151 143.431 20.1811 143.431 18.3136C143.431 16.4126 143.93 14.6784 144.928 13.111C145.958 11.5101 147.504 10.2426 149.565 9.30881C151.66 8.34165 154.303 7.85774 157.495 7.85772Z" fill="white"/>
<path fill-rule="evenodd" clip-rule="evenodd" d="M222.549 16.3625C225.308 16.3625 227.752 16.9463 229.88 18.1136C232.041 19.2809 233.72 20.8814 234.917 22.9157C236.147 24.9501 236.762 27.3186 236.762 30.02C236.762 32.6547 236.147 35.006 234.917 37.0738C233.72 39.1415 232.041 40.7758 229.88 41.9764C227.752 43.1437 225.308 43.7269 222.549 43.7269C219.823 43.7269 217.396 43.1437 215.268 41.9764C213.14 40.7758 211.461 39.1415 210.231 37.0738C209.001 35.006 208.386 32.6547 208.386 30.02C208.386 27.352 209.001 25.0007 210.231 22.9663C211.461 20.8985 213.14 19.2809 215.268 18.1136C217.396 16.9464 219.823 16.3626 222.549 16.3625ZM222.599 21.6652C221.069 21.6652 219.706 21.9987 218.509 22.6657C217.346 23.3328 216.415 24.3 215.717 25.5673C215.018 26.8013 214.669 28.2858 214.669 30.02C214.669 31.7208 215.018 33.2049 215.717 34.4721C216.415 35.7395 217.346 36.7067 218.509 37.3738C219.706 38.0408 221.053 38.3743 222.549 38.3743C224.078 38.3743 225.441 38.0407 226.638 37.3738C227.835 36.7067 228.766 35.7395 229.431 34.4721C230.129 33.2049 230.478 31.7209 230.478 30.02C230.478 28.2858 230.129 26.8013 229.431 25.5673C228.766 24.3001 227.835 23.3327 226.638 22.6657C225.441 21.9988 224.095 21.6652 222.599 21.6652Z" fill="white"/>
<path d="M126.978 13.8609H115.407V43.377H108.924V13.8609H97.3542V8.35828H126.978V13.8609Z" fill="white"/>
<path d="M182.625 19.786C183.377 18.9715 184.274 18.2965 185.318 17.7631C187.113 16.8293 189.175 16.3626 191.502 16.3625C193.63 16.3625 195.525 16.7793 197.187 17.6131C198.883 18.4468 200.213 19.731 201.177 21.4652C202.141 23.1661 202.624 25.3675 202.624 28.069V43.377H196.389V28.8689C196.389 26.5012 195.824 24.7335 194.694 23.5663C193.597 22.399 192.051 21.8152 190.056 21.8152C188.593 21.8152 187.296 22.1154 186.166 22.7157C185.036 23.3161 184.154 24.2167 183.523 25.4173C182.924 26.5846 182.625 28.0687 182.625 29.8695V43.377H176.391V6.25721H182.625V19.786Z" fill="white"/>
<path d="M42.0627 0C54.4233 3.35763e-05 65.5344 5.34914 73.2312 13.8644L52.5989 19.8026L15.8337 9.22146C23.026 3.45439 32.1367 0 42.0627 0Z" fill="white"/>
</g>
</svg>
